<?xml version="1.0" standalone="no"?>
<!DOCTYPE svg PUBLIC "-//W3C//DTD SVG 20010904//EN"
 "http://www.w3.org/TR/2001/REC-SVG-20010904/DTD/svg10.dtd">
<svg version="1.0" xmlns="http://www.w3.org/2000/svg"
 width="96.000000pt" height="96.000000pt" viewBox="0 0 96.000000 96.000000"
 preserveAspectRatio="xMidYMid meet">
<metadata>
Created by potrace 1.11, written by Peter Selinger 2001-2013
</metadata>
<g transform="translate(0.000000,96.000000) scale(0.100000,-0.100000)"
fill="#000000" stroke="none">
<path d="M395 858 c-23 -14 -58 -50 -84 -87 -24 -34 -71 -84 -105 -111 -33
-26 -71 -61 -83 -78 -48 -65 -53 -163 -13 -241 22 -43 60 -76 129 -111 24 -12
65 -42 91 -66 84 -78 169 -100 275 -71 37 11 125 84 125 105 0 5 31 41 69 81
82 84 85 95 80 279 -4 111 -6 121 -31 154 -22 29 -42 40 -110 62 -46 14 -107
43 -135 62 -70 48 -148 56 -208 22z"/>
</g>
</svg>
